{
	"asset":{
		"version":"2.0",
		"generator":"Created using the official Cinema 4D glTF Exporter 1.000x284978"
	},
	"scenes":[{
		"nodes":[0]
	}],
	"animations":[{
		"samplers":[{
			"input":12,
			"interpolation":"LINEAR",
			"output":13
		},
		{
			"input":14,
			"interpolation":"LINEAR",
			"output":15
		}],
		"channels":[{
			"sampler":0,
			"target":{
				"node":4,
				"path":"translation"
			}
		},
		{
			"sampler":1,
			"target":{
				"node":4,
				"path":"rotation"
			}
		}]
	}],
	"nodes":[{
		"name":"TestButton.stp",
		"children":[1,
		2,
		3,
		4],
		"rotation":[0.5,
		0.5,
		0.5,
		-0.5],
		"translation":[0.0,
		0.0,
		0.0],
		"scale":[1.0,
		1.0,
		1.0]
	},
	{
		"name":"body",
		"mesh":0
	},
	{
		"name":"button2",
		"mesh":1
	},
	{
		"name":"button1",
		"mesh":2
	},
	{
		"name":"cover",
		"mesh":3,
		"rotation":[5.809258184275205e-33,
		-5.809258184275205e-33,
		0.7071067690849304,
		-0.7071067690849304],
		"translation":[-1.4175218343734742,
		-2.3077476024627687,
		2.7289190691910069e-31],
		"scale":[1.0,
		1.0,
		1.0]
	}],
	"meshes":[{
		"name":"body",
		"primitives":[{
			"attributes":{
				"POSITION":1,
				"TEXCOORD_0":2
			},
			"indices":0,
			"material":0
		}]
	},
	{
		"name":"button2",
		"primitives":[{
			"attributes":{
				"POSITION":4,
				"TEXCOORD_0":5
			},
			"indices":3,
			"material":1
		}]
	},
	{
		"name":"button1",
		"primitives":[{
			"attributes":{
				"POSITION":7,
				"TEXCOORD_0":8
			},
			"indices":6,
			"material":2
		}]
	},
	{
		"name":"cover",
		"primitives":[{
			"attributes":{
				"POSITION":10,
				"TEXCOORD_0":11
			},
			"indices":9,
			"material":3
		}]
	}],
	"accessors":[{
		"bufferView":0,
		"count":84,
		"type":"SCALAR",
		"componentType":5123,
		"byteOffset":0,
		"max":[38],
		"min":[0]
	},
	{
		"bufferView":1,
		"count":39,
		"type":"VEC3",
		"componentType":5126,
		"byteOffset":0,
		"max":[2.1174960136413576,
		1.4671733379364014,
		5.041964530944824],
		"min":[-1.95993173122406,
		-0.3239448368549347,
		0.0]
	},
	{
		"bufferView":1,
		"count":39,
		"type":"VEC2",
		"componentType":5126,
		"byteOffset":12,
		"max":[1.0,
		1.0],
		"min":[0.0,
		0.0]
	},
	{
		"bufferView":2,
		"count":1044,
		"type":"SCALAR",
		"componentType":5123,
		"byteOffset":0,
		"max":[355],
		"min":[0]
	},
	{
		"bufferView":3,
		"count":356,
		"type":"VEC3",
		"componentType":5126,
		"byteOffset":0,
		"max":[-0.22275419533252717,
		1.8669582605361939,
		4.567934989929199],
		"min":[-1.4581019878387452,
		1.1973613500595093,
		3.3325870037078859]
	},
	{
		"bufferView":3,
		"count":356,
		"type":"VEC2",
		"componentType":5126,
		"byteOffset":12,
		"max":[1.0,
		1.0],
		"min":[1.0063327131087425e-17,
		0.0]
	},
	{
		"bufferView":4,
		"count":1044,
		"type":"SCALAR",
		"componentType":5123,
		"byteOffset":0,
		"max":[355],
		"min":[0]
	},
	{
		"bufferView":5,
		"count":356,
		"type":"VEC3",
		"componentType":5126,
		"byteOffset":0,
		"max":[0.6964561343193054,
		0.4642317295074463,
		3.1386561393737795],
		"min":[-0.5388916730880737,
		-0.20536521077156068,
		1.9033082723617554]
	},
	{
		"bufferView":5,
		"count":356,
		"type":"VEC2",
		"componentType":5126,
		"byteOffset":12,
		"max":[1.0,
		1.0],
		"min":[0.0,
		0.0]
	},
	{
		"bufferView":6,
		"count":36,
		"type":"SCALAR",
		"componentType":5123,
		"byteOffset":0,
		"max":[18],
		"min":[0]
	},
	{
		"bufferView":7,
		"count":19,
		"type":"VEC3",
		"componentType":5126,
		"byteOffset":0,
		"max":[2.1174960136413576,
		-0.3239448368549347,
		5.041964530944824],
		"min":[-1.95993173122406,
		-0.5193908214569092,
		0.0]
	},
	{
		"bufferView":7,
		"count":19,
		"type":"VEC2",
		"componentType":5126,
		"byteOffset":12,
		"max":[1.0,
		1.0],
		"min":[0.0,
		0.0]
	},
	{
		"bufferView":8,
		"count":31,
		"type":"SCALAR",
		"componentType":5126,
		"byteOffset":0,
		"max":[1.0],
		"min":[0.0]
	},
	{
		"bufferView":8,
		"count":31,
		"type":"VEC3",
		"componentType":5126,
		"byteOffset":124,
		"max":[0.0,
		0.0,
		2.7289190691910069e-31],
		"min":[-1.4175218343734742,
		-2.3077476024627687,
		0.0]
	},
	{
		"bufferView":9,
		"count":31,
		"type":"SCALAR",
		"componentType":5126,
		"byteOffset":0,
		"max":[1.0],
		"min":[0.0]
	},
	{
		"bufferView":9,
		"count":31,
		"type":"VEC4",
		"componentType":5126,
		"byteOffset":124,
		"max":[5.809258184275205e-33,
		0.0,
		0.7071067690849304,
		-0.7071067690849304],
		"min":[0.0,
		-5.809258184275205e-33,
		0.0,
		-1.0]
	}],
	"bufferViews":[{
		"buffer":0,
		"byteOffset":0,
		"byteLength":168,
		"target":34963
	},
	{
		"buffer":0,
		"byteOffset":168,
		"byteLength":780,
		"byteStride":20,
		"target":34962
	},
	{
		"buffer":1,
		"byteOffset":0,
		"byteLength":2088,
		"target":34963
	},
	{
		"buffer":1,
		"byteOffset":2088,
		"byteLength":7120,
		"byteStride":20,
		"target":34962
	},
	{
		"buffer":2,
		"byteOffset":0,
		"byteLength":2088,
		"target":34963
	},
	{
		"buffer":2,
		"byteOffset":2088,
		"byteLength":7120,
		"byteStride":20,
		"target":34962
	},
	{
		"buffer":3,
		"byteOffset":0,
		"byteLength":72,
		"target":34963
	},
	{
		"buffer":3,
		"byteOffset":72,
		"byteLength":380,
		"byteStride":20,
		"target":34962
	},
	{
		"buffer":4,
		"byteOffset":0,
		"byteLength":496
	},
	{
		"buffer":4,
		"byteOffset":496,
		"byteLength":620
	}],
	"buffers":[{
		"uri":"data:application/octet-stream;base64,",
		"byteLength":948
	},
	{
		"uri":"data:application/octet-stream;base64,",
		"byteLength":9208
	},
	{
		"uri":"data:application/octet-stream;base64,",
		"byteLength":9208
	},
	{
		"uri":"data:application/octet-stream;base64,",
		"byteLength":452
	},
	{
		"uri":"data:application/octet-stream;base64,",
		"byteLength":1116
	}],
	"materials":[{
		"pbrMetallicRoughness":{
			"baseColorFactor":[0.0,
			0.0,
			0.0,
			1.0],
			"metallicFactor":0.0,
			"roughnessFactor":0.5
		},
		"emissiveFactor":[0.0,
		0.0,
		0.0],
		"alphaMode":"OPAQUE",
		"doubleSided":true,
		"name":"材质.1"
	},
	{
		"pbrMetallicRoughness":{
			"baseColorFactor":[0.33407202216066469,
			0.4547368421052629,
			0.663157894736842,
			1.0],
			"metallicFactor":0.0,
			"roughnessFactor":0.5
		},
		"emissiveFactor":[0.0,
		0.0,
		0.0],
		"alphaMode":"OPAQUE",
		"doubleSided":true,
		"name":"材质.2"
	},
	{
		"pbrMetallicRoughness":{
			"baseColorFactor":[1.0,
			0.9666666666666668,
			0.0,
			1.0],
			"metallicFactor":0.0,
			"roughnessFactor":0.5
		},
		"emissiveFactor":[0.0,
		0.0,
		0.0],
		"alphaMode":"OPAQUE",
		"doubleSided":true,
		"name":"材质"
	},
	{
		"pbrMetallicRoughness":{
			"baseColorFactor":[0.8,
			0.8,
			0.8,
			1.0],
			"metallicFactor":0.0,
			"roughnessFactor":0.5
		},
		"emissiveFactor":[0.0,
		0.0,
		0.0],
		"alphaMode":"OPAQUE",
		"doubleSided":true,
		"name":"材质.3"
	}]
}